<svg width="384" height="279" viewBox="0 0 384 279" fill="none" xmlns="http://www.w3.org/2000/svg">
<path d="M62.0695 8.32992C77.5573 -1.99522 103.97 3.45406 120.722 7.07607C128.08 3.39692 138.345 7.07607 146.356 7.07607C154.284 7.07607 160.697 9.43534 166.487 15.2261C180.473 29.2119 168.391 56.5633 160.218 71.0921C152.941 84.0292 148.195 92.8317 134.584 100.488C130.74 102.65 124.483 106.75 124.483 111.773C124.483 116.374 124.24 125.069 122.603 129.326C120.962 133.591 121.976 139.778 121.976 144.373C121.976 150.202 119.526 158.702 116.333 163.668C109.789 173.848 101.011 184.091 90.6295 190.765C69.4823 204.36 43.514 187.359 35.1814 167.569C33.0053 162.4 33.0196 156.435 30.7233 151.269C27.2274 143.403 20.6982 139.75 15.1198 133.158C6.2245 122.645 -1.89351 105.227 4.39245 91.084C6.66229 85.9769 7.7188 81.4403 11.6369 77.2917C16.2054 72.4545 20.9716 67.4499 25.7079 62.5241C34.7006 53.1716 39.7043 45.2631 40.4755 32.1531C40.7325 27.7831 46.7525 20.938 49.2524 17.3855C51.9824 13.5061 58.0918 10.9818 62.0695 8.32992Z" stroke="#EEECEA" stroke-width="3" stroke-linecap="round"/>
<path d="M307.545 134.969C293.941 139.322 275.073 139.724 271.253 156.911C267.983 171.627 267.683 186.863 263.939 201.423C259.775 217.618 247.413 228.841 244.783 245.934C242.88 258.305 244.281 271.853 257.67 275.679C264.327 277.581 273.049 277.352 279.961 276.584C286.496 275.858 295.741 275.418 301.346 272.265C306.451 269.394 315.785 269.766 319.109 264.115C321.65 259.796 323.994 256.257 326.075 251.577C329.21 244.523 330.81 232.053 338.334 227.754C347.536 222.496 354.126 216.507 361.182 208.667C371.903 196.756 375.882 182.343 385.006 169.798C386.296 168.023 386.538 159.363 386.538 156.911C386.538 151.292 386.538 145.673 386.538 140.054C386.538 129.576 381.539 126.11 372.746 121.455C364.765 117.23 360.562 109.101 350.734 107.314C345.882 106.432 342.744 104.876 337.638 104.876C331.393 104.876 332.629 105.809 329.14 110.17C328.051 111.53 325.635 116.481 325.169 118.111C324.456 120.607 321.568 123.249 319.457 124.938C313.42 129.767 307.653 133.225 301.276 137.476" stroke="#EEECEA" stroke-width="3" stroke-linecap="round"/>
<path d="M81.7478 111.621C74.9445 111.621 68.136 112.233 61.2874 112.233C57.7075 112.233 54.7682 112.449 52.3827 109.31C47.7253 103.182 43.9809 94.0519 49.0179 86.7761C51.8729 82.6522 52.6615 77.3547 56.3252 73.6909C60.8358 69.1804 67.1695 68.185 73.183 68.185C78.5472 68.185 82.6386 67.9711 87.2538 70.938C90.8584 73.2552 93.3084 78.3963 93.9493 82.5617C94.7914 88.0354 94.595 93.6927 94.595 99.2495C94.595 104.598 91.8428 106.201 88.8172 110.091C84.7675 115.298 78.967 116.515 72.5712 116.515C65.5813 116.515 59.8614 117.607 56.971 110.091C54.2159 102.928 56.0533 94.7294 56.0533 87.15" stroke="#F9E535" stroke-width="7" stroke-linecap="round"/>
<path d="M62.7829 75.5263C60.3647 78.7182 58.5694 82.0546 56.8011 85.6545C56.6285 86.0058 55.4416 88.8433 55.4416 88.3055C55.4416 87.0797 59.9639 79.2274 57.4128 83.6153C56.3006 85.5283 52.0836 93.3792 55.2377 86.4702C56.7583 83.1393 58.9377 80.1576 60.5737 76.8858C61.6108 74.8114 57.9823 80.7358 56.8011 82.7316C54.9311 85.8913 51.1592 93.1372 51.1592 96.9383C51.1592 98.6763 50.7837 100.673 53.2664 99.9632C55.5001 99.325 55.9 93.1863 56.0873 91.5003C56.8213 84.8944 61.6648 75.9142 68.9006 74.8805C72.4479 74.3737 75.9347 74.3027 79.6066 74.3027C85.0694 74.3027 85.4594 75.2682 87.7296 79.8087C89.6686 83.6867 90.5774 88.0588 91.6721 92.316C92.283 94.6915 92.7597 96.6163 92.7597 99.0795C92.7597 102.217 91.2071 102.934 88.9531 105.027C84.9438 108.75 77.3056 110.397 71.9594 110.397C69.5705 110.397 67.2209 110.838 65.196 109.446C61.7426 107.071 60.4518 101.811 58.8403 98.1279C57.9226 96.0303 57.6212 92.4921 58.3645 90.3448C59.3693 87.4421 62.3027 86.4066 64.3123 84.397C67.0494 81.6599 75.2877 79.3623 79.3007 81.1682C83.7785 83.1832 83.5831 88.49 83.5831 92.52C83.5831 99.373 81.2191 102.444 74.0667 102.444C70.3088 102.444 69.3968 99.7096 66.5894 97.5501C62.298 94.249 65.9613 89.5165 68.7306 86.4702C71.7804 83.1154 80.2374 84.484 83.2433 87.4898C84.8793 89.1258 83.5831 96.354 83.5831 98.7736C83.5831 101.107 83.7554 101.86 81.4419 102.75C77.4091 104.301 71.9732 102.64 68.2888 100.473C66.9745 99.6999 66.2433 96.174 66.4875 94.8311C66.8713 92.7203 72.7483 90.1151 74.5425 91.8402C76.1916 93.4259 77.0237 95.7925 79.0288 96.9383C82.0247 98.6503 80.7963 99.7083 77.7373 100.473C74.5266 101.276 72.1617 99.748 73.217 96.0546C73.467 95.1794 74.8108 96.1202 74.0327 97.2442C72.7676 99.0715 70.397 99.3303 68.4248 99.8612C66.8726 100.279 68.2779 98.4559 68.9006 98.1619C70.2135 97.5419 73.8185 96.7275 74.3386 98.8076C75.1739 102.149 70.1241 105.511 70.1241 101.799C70.1241 98.7867 75.0751 96.5779 74.2706 99.9972C73.3327 103.983 69.4868 102.02 71.1098 98.7736C72.7314 95.5304 79.2934 94.6066 78.553 99.3854C78.0381 102.709 76.2827 105.87 73.183 107.338C71.6046 108.086 69.7416 108.585 69.2065 106.659C67.8081 101.625 72.9725 98.7736 77.3295 98.7736C82.4824 98.7736 75.9726 108.276 73.5569 107.203C72.699 106.821 73.183 102.956 73.183 102.138C73.183 99.4558 74.9217 98.1621 77.3295 97.2102C79.7182 96.2658 79.7918 97.7472 81.136 99.2834C81.383 99.5657 82.5278 99.8058 82.1557 99.7593C80.5501 99.5586 78.4766 101.22 77.1935 101.968C75.0733 103.205 70.826 105.283 70.2601 101.425C70.0411 99.9317 69.2559 94.3765 70.2601 92.9958C71.4734 91.3274 76.5354 91.9463 78.3151 92.0781C81.347 92.3027 80.772 93.8573 81.272 96.1906C81.9206 99.2173 82.8594 95.5442 81.8158 95.7827C80.6169 96.0568 76.9216 100.021 76.9216 96.8364C76.9216 93.9473 78.3802 92.1283 81.0001 91.0925C81.9591 90.7133 83.5831 90.3665 83.5831 91.7382C83.5831 92.0967 83.3636 93.9988 83.923 93.1997C85.2526 91.3003 83.6324 93.26 84.3309 93.7435C85.1805 94.3317 95.1808 92.7027 93.6774 95.4089C92.5952 97.3568 86.9132 100.262 89.5649 95.5108C89.9269 94.8623 90.3126 92.1378 90.3126 93.5736C90.3126 94.5359 90.5596 95.2854 89.7009 95.7148" stroke="#F9E535" stroke-width="7" stroke-linecap="round"/>
<path d="M333.798 163.01C329.077 164.986 321.563 167.524 321.563 173.75C321.563 176.149 321.446 176.989 323.534 178.304C324.897 179.162 326.894 179.202 328.428 179.528C332.366 180.365 336.244 181.291 340.154 182.247C344.819 183.387 352.155 186.394 353.341 179.868C353.939 176.582 353.173 173.219 350.622 171.235C347.649 168.922 344.053 165.457 340.188 165.457C337.003 165.457 332.208 164.872 329.652 167.428C327.408 169.672 327.069 177.097 327.069 180.139C327.069 181.702 326.567 184.283 327.443 185.645C328.95 187.991 337.419 187.551 339.78 187.345C344.923 186.895 351.976 185.978 353.341 179.834C353.602 178.66 353.442 177.058 353.375 175.857C353.261 173.801 351.688 173.788 350.928 172.458C347.712 166.83 338.133 167.375 339.95 175.551C340.965 180.119 348.61 169.739 343.553 169.739C341.215 169.739 338.237 169.679 338.081 172.798C338.064 173.125 338.037 177.118 338.387 176.979C339.028 176.722 339.084 171.449 338.081 171.575C336.762 171.739 337.469 179.601 337.469 180.989C337.469 181.022 337.48 179.845 337.435 179.528C337.246 178.202 336.142 178.068 337.945 179.528C340.692 181.752 345.125 184.753 346.884 179.868C347.82 177.267 346.822 176.851 349.365 178.304C351.786 179.688 351.105 173.851 350.792 172.322C350.022 168.555 339.812 170.351 336.857 170.351C333.603 170.351 335.634 186.37 335.634 172.186C335.634 170.165 336.62 167.292 334.104 167.292C332.794 167.292 331.83 167.085 330.876 168.04C328.468 170.447 323.398 174.377 323.398 178.61C323.398 185.801 330.106 186.869 335.974 186.869C338.761 186.869 342.921 181.027 344.81 178.916C347.421 175.998 346.289 172.304 346.034 168.992C345.774 165.612 342.898 163.218 339.916 164.709C338.921 165.207 337.039 164.845 335.94 164.845C334.481 164.845 333.755 165.921 332.575 166.069C330.825 166.287 328.892 169.904 327.817 171.099C326.055 173.056 326.457 176.486 326.457 178.916C326.457 182.559 333.527 183.022 333.527 182.587C333.527 181.832 329.228 180.751 328.598 180.751C326.747 180.751 327.069 179.055 327.069 177.692" stroke="#F9E535" stroke-width="7" stroke-linecap="round"/>
<path d="M325.233 170.963C323.481 175.453 323.018 181.323 326.593 184.898C329.042 187.346 333.608 188.704 336.857 188.704C341.634 188.704 345.052 188.463 348.481 185.034C351.722 181.792 350.679 178.356 351.574 174.328C352.594 169.736 351.784 167.732 348.175 164.845C346.307 163.351 338.126 162.65 335.634 163.758C330.909 165.857 327.681 170.461 327.681 175.857C327.681 178.699 329.737 182.298 333.153 180.377C335.71 178.939 335.669 170.997 332.303 170.385C328.833 169.754 324.622 174.15 324.622 177.386C324.622 181.88 327.418 183.324 331.045 185.34C332.732 186.277 340.02 189.316 334.104 189.316C332.557 189.316 329.935 187.939 328.768 187.005C326.897 185.508 323.2 189.063 322.039 186.869C320.585 184.122 320.303 180.204 321.869 177.386C322.376 176.474 324.622 173.168 324.622 175.857C324.622 177.851 325.233 179.831 325.233 181.669C325.233 184.131 327.069 185.766 327.069 188.602C327.069 193.821 331.026 187.986 332.439 190.811C333.875 193.683 335.476 191.765 337.741 191.117C341.985 189.905 341.307 181.585 345.422 179.528" stroke="#F9E535" stroke-width="7" stroke-linecap="round"/>
<path d="M322.211 187.66C325.749 190.341 330.871 191.672 335.307 191.672C337.146 191.672 338.974 191.46 340.725 191.363C342.021 191.291 342.779 190.181 343.982 189.837C346.647 189.076 349.037 187.742 350.839 185.74C352.652 183.725 353.125 181.007 353.993 178.403" stroke="#F9E535" stroke-width="7" stroke-linecap="round"/>
</svg>
