<svg width="138" height="148" viewBox="0 0 138 148" fill="none" xmlns="http://www.w3.org/2000/svg">
<path d="M11.3454 80.9599C15.4866 86.3952 18.614 91.0613 18.614 97.8047C18.614 103.21 16.5373 108.222 16.5373 113.669C16.5373 125.104 12.4427 131.952 23.5752 139.109C34.331 146.023 49.2071 147.949 61.8221 144.705C71.1392 142.309 81.1 137.582 89.2237 132.36C94.2652 129.119 94.4156 126.322 94.4156 120.418C94.4156 117.454 94.2436 112.638 92.1081 110.265C90.2986 108.255 91.3005 102.894 91.3005 100.17C91.3005 92.1706 105.357 93.8611 105.838 85.6903C106.151 80.3616 106.876 75.2205 106.876 69.7685C106.876 63.6929 112.56 61.7113 115.76 57.5964C118.677 53.8458 123.438 49.1378 127.644 46.9242C130.457 45.4437 133.06 39.7042 134.393 36.7712C142.942 17.9638 120.857 9.36121 106.357 6.13902C91.3046 2.79404 74.7096 -2.12885 61.7067 8.27346C54.1488 14.3198 45.7404 19.0249 36.4972 22.58C30.6641 24.8235 25.3293 27.8937 20.6908 32.1561C15.7015 36.7409 9.72946 39.4262 6.61501 45.6551C3.28326 52.3186 2 58.7461 2 66.4226C2 70.2688 3.06655 73.0111 4.01907 76.3449C4.80431 79.0932 8.23027 81.1525 8.23027 84.075" stroke="#DAD7D2" stroke-opacity="0.46" stroke-width="3" stroke-linecap="round"/>
<path d="M66.3795 45.6551C59.305 45.6551 52.9667 46.1323 50.8615 53.5006C49.5551 58.073 47.9056 68.2548 52.0729 72.4221C53.9656 74.3148 66.5299 76.6183 68.4562 74.2104C69.7108 72.6423 73.9368 72.4213 74.6288 69.9993C75.5584 66.7456 76.7633 65.3209 76.7633 61.7499C76.7633 54.8829 71.2966 54.1488 67.1871 50.0393C64.2327 47.0849 70.4649 47.7318 72.0906 47.7318C75.2348 47.7318 75.9622 49.8606 76.7056 52.4622C77.2076 54.2194 79.1254 59.2727 77.5709 61C75.4734 63.3306 72.3226 62.4988 70.3022 64.1151C68.98 65.1729 62.7237 64.6834 61.9952 63.3075C60.0971 59.7221 60.4578 55.1087 65.1104 55.0005C66.3815 54.9709 79.4641 56.4444 74.0519 60.6538C71.8347 62.3784 55.3407 62.9641 58.1878 56.558C60.3078 51.7882 67.3089 57.6752 62.226 57.0772C60.3477 56.8562 61.1876 51.7584 61.1876 50.3278C61.1876 48.2387 63.798 48.689 65.3411 48.7702C69.8265 49.0063 70.1356 59.1846 65.8603 60.1347C60.801 61.2589 60.5421 52.3646 67.8217 54.0775C74.5864 55.6692 71.4301 75.7352 63.322 76.7487C53.8502 77.9327 60.6707 56.2903 63.6682 58.2887C67.2478 60.6751 63.6639 72.2469 57.8417 66.1919C51.7763 59.8838 61.4026 55.9265 63.0336 62.2691C64.5753 68.2647 54.6253 71.6164 53.6882 64.9227C52.6319 57.3778 62.0704 57.2966 62.226 65.3842C62.4052 74.7027 53.9292 74.4448 52.4191 65.3842C51.9352 62.481 50.278 54.8048 52.8806 52.3468C54.1579 51.1405 57.7567 51.6123 58.5917 53.0968C61.7743 58.7548 62.1888 68.4994 54.4958 68.4994C50.0193 68.4994 49.0796 59.599 53.5151 58.6348C64.4879 56.2494 69.7083 65.1232 67.1871 75.768C66.2791 79.6019 62.6785 78.8831 59.5723 78.8831C54.0837 78.8831 52.1855 77.4737 51.0346 71.6145C49.9184 65.932 46.7423 57.0772 54.8996 57.0772C57.8428 57.0772 62.0418 56.2516 64.3027 58.5771C66.187 60.5152 69.8163 68.227 68.2832 71.0376C65.4612 76.2113 49.4483 74.7698 46.4196 70.5761C44.4686 67.8748 44.0343 64.0523 44.6312 60.7692C45.1311 58.0199 50.7934 59.1118 52.6498 59.154C57.0646 59.2543 60.6999 67.2163 55.9957 69.307C50.2735 71.8502 49.4635 58.1205 51.8422 55.462C56.2754 50.5072 59.1108 56.8409 59.1108 60.7115C59.1108 64.2137 52.8806 68.8741 52.8806 64.865C52.8806 60.9414 54.2516 60.4365 56.8033 57.8848C57.5739 57.1143 57.8979 55.4298 58.6493 55.0005C59.2522 54.656 62.8029 53.7762 62.8029 53.1545C62.8029 52.6099 59.3949 53.4001 59.1108 51.8853C58.9897 51.2393 58.0418 49.161 57.5533 48.7702C54.83 46.5916 53.2851 46.5841 50.2846 48.251C46.3699 50.4259 45.6119 59.5558 45.6119 63.8267C45.6119 71.9483 57.1374 66.4226 61.1876 66.4226C64.6598 66.4226 67.4179 65.7809 67.4179 70.0569C67.4179 74.3724 67.1946 74.3921 63.7835 76.2872C58.8912 79.0052 49.7828 77.3027 47.4579 72.6529C44.2276 66.1923 42.5761 61.1363 48.4963 55.8081C50.857 53.6835 50.6935 53.8355 49.7078 50.3854C48.642 46.6553 45.14 50.6815 44.6312 52.4622C43.0733 57.915 41.4584 62.6835 41.4584 69.0186C41.4584 71.2789 40.6419 75.413 42.266 77.0371C44.3625 79.1336 47.6434 77.6008 49.5347 79.1139C55.0575 83.5322 62.8109 76.2214 66.3795 72.6529" stroke="#DAD7D2" stroke-opacity="0.46" stroke-width="5" stroke-linecap="round"/>
<path d="M66.3795 45.6551C59.305 45.6551 52.9667 46.1323 50.8615 53.5006C49.5551 58.073 47.9056 68.2548 52.0729 72.4221C53.9656 74.3148 66.5299 76.6183 68.4562 74.2104C69.7108 72.6423 73.9368 72.4213 74.6288 69.9993C75.5584 66.7456 76.7633 65.3209 76.7633 61.7499C76.7633 54.8829 71.2966 54.1488 67.1871 50.0393C64.2327 47.0849 70.4649 47.7318 72.0906 47.7318C75.2348 47.7318 75.9622 49.8606 76.7056 52.4622C77.2076 54.2194 79.1254 59.2727 77.5709 61C75.4734 63.3306 72.3226 62.4988 70.3022 64.1151C68.98 65.1729 62.7237 64.6834 61.9952 63.3075C60.0971 59.7221 60.4578 55.1087 65.1104 55.0005C66.3815 54.9709 79.4641 56.4444 74.0519 60.6538C71.8347 62.3784 55.3407 62.9641 58.1878 56.558C60.3078 51.7882 67.3089 57.6752 62.226 57.0772C60.3477 56.8562 61.1876 51.7584 61.1876 50.3278C61.1876 48.2387 63.798 48.689 65.3411 48.7702C69.8265 49.0063 70.1356 59.1846 65.8603 60.1347C60.801 61.2589 60.5421 52.3646 67.8217 54.0775C74.5864 55.6692 71.4301 75.7352 63.322 76.7487C53.8502 77.9327 60.6707 56.2903 63.6682 58.2887C67.2478 60.6751 63.6639 72.2469 57.8417 66.1919C51.7763 59.8838 61.4026 55.9265 63.0336 62.2691C64.5753 68.2647 54.6253 71.6164 53.6882 64.9227C52.6319 57.3778 62.0704 57.2966 62.226 65.3842C62.4052 74.7027 53.9292 74.4448 52.4191 65.3842C51.9352 62.481 50.278 54.8048 52.8806 52.3468C54.1579 51.1405 57.7567 51.6123 58.5917 53.0968C61.7743 58.7548 62.1888 68.4994 54.4958 68.4994C50.0193 68.4994 49.0796 59.599 53.5151 58.6348C64.4879 56.2494 69.7083 65.1232 67.1871 75.768C66.2791 79.6019 62.6785 78.8831 59.5723 78.8831C54.0837 78.8831 52.1855 77.4737 51.0346 71.6145C49.9184 65.932 46.7423 57.0772 54.8996 57.0772C57.8428 57.0772 62.0418 56.2516 64.3027 58.5771C66.187 60.5152 69.8163 68.227 68.2832 71.0376C65.4612 76.2113 49.4483 74.7698 46.4196 70.5761C44.4686 67.8748 44.0343 64.0523 44.6312 60.7692C45.1311 58.0199 50.7934 59.1118 52.6498 59.154C57.0646 59.2543 60.6999 67.2163 55.9957 69.307C50.2735 71.8502 49.4635 58.1205 51.8422 55.462C56.2754 50.5072 59.1108 56.8409 59.1108 60.7115C59.1108 64.2137 52.8806 68.8741 52.8806 64.865C52.8806 60.9414 54.2516 60.4365 56.8033 57.8848C57.5739 57.1143 57.8979 55.4298 58.6493 55.0005C59.2522 54.656 62.8029 53.7762 62.8029 53.1545C62.8029 52.6099 59.3949 53.4001 59.1108 51.8853C58.9897 51.2393 58.0418 49.161 57.5533 48.7702C54.83 46.5916 53.2851 46.5841 50.2846 48.251C46.3699 50.4259 45.6119 59.5558 45.6119 63.8267C45.6119 71.9483 57.1374 66.4226 61.1876 66.4226C64.6598 66.4226 67.4179 65.7809 67.4179 70.0569C67.4179 74.3724 67.1946 74.3921 63.7835 76.2872C58.8912 79.0052 49.7828 77.3027 47.4579 72.6529C44.2276 66.1923 42.5761 61.1363 48.4963 55.8081C50.857 53.6835 50.6935 53.8355 49.7078 50.3854C48.642 46.6553 45.14 50.6815 44.6312 52.4622C43.0733 57.915 41.4584 62.6835 41.4584 69.0186C41.4584 71.2789 40.6419 75.413 42.266 77.0371C44.3625 79.1336 47.6434 77.6008 49.5347 79.1139C55.0575 83.5322 62.8109 76.2214 66.3795 72.6529" stroke="#FFE609" stroke-opacity="0.79" stroke-width="5" stroke-linecap="round"/>
<path d="M53.9189 62.2691C53.6262 63.9278 51.9934 84.6862 46.4196 75.768C44.2779 72.3414 41.3636 70.3628 39.6124 66.4226C38.2061 63.2583 38.982 57.0154 41.2277 54.7697C47.5121 48.4853 54.7834 48.7702 63.2643 48.7702" stroke="#DAD7D2" stroke-opacity="0.46" stroke-width="5" stroke-linecap="round"/>
<path d="M53.9189 62.2691C53.6262 63.9278 51.9934 84.6862 46.4196 75.768C44.2779 72.3414 41.3636 70.3628 39.6124 66.4226C38.2061 63.2583 38.982 57.0154 41.2277 54.7697C47.5121 48.4853 54.7834 48.7702 63.2643 48.7702" stroke="#FFE609" stroke-opacity="0.79" stroke-width="5" stroke-linecap="round"/>
</svg>
